<?xml version="1.0" encoding="UTF-8" standalone="no"?>
<!DOCTYPE svg PUBLIC "-//W3C//DTD SVG 1.1//EN" "http://www.w3.org/Graphics/SVG/1.1/DTD/svg11.dtd">
<svg width="100%" height="100%" viewBox="0 0 800 200" version="1.1" xmlns="http://www.w3.org/2000/svg" xmlns:xlink="http://www.w3.org/1999/xlink" xml:space="preserve" xmlns:serif="http://www.serif.com/" style="fill-rule:evenodd;clip-rule:evenodd;stroke-linejoin:round;stroke-miterlimit:2;">
    <g transform="matrix(1,0,0,1,-450,-450)">
        <g id="_4" serif:id="4" transform="matrix(1,0,0,0.5,0,450)">
            <rect x="450" y="0" width="800" height="400" style="fill:none;"/>
            <g transform="matrix(1.209421,0,0,2.418843,-80.506371,-232.972848)">
                <g transform="matrix(-0.819025,0,0,0.819025,719.020123,81.536036)">
                    <path d="M205,26L166,103L183,122L205,78L227,122L244,103L205,26ZM205,162L142,81L83,212L128,212L117,201L117,194L147,128L205,200L263,128L293,194L293,201L282,212L327,212L268,81L205,162Z" style="fill:rgb(198,175,96);"/>
                </g>
                <g transform="matrix(1.044887,0,0,1.044887,-198.792987,-168.47022)">
                    <g transform="matrix(1.272528,0,0,1.272528,777.846291,-13.132459)">
                        <g transform="matrix(69.802318,0,0,69.802318,358.391138,280)">
                        </g>
                        <text x="41px" y="280px" style="font-family:'Didot-Bold', 'Didot';font-weight:700;font-size:69.802px;fill:rgb(198,175,96);">A<tspan x="97.47px 146.192px 200.079px 253.967px 309.181px " y="280px 280px 280px 280px 280px ">SCENT</tspan></text>
                    </g>
                    <g transform="matrix(0.835662,0,0,0.835662,791.759649,153.193733)">
                        <g transform="matrix(39.602601,0,0,39.602601,527.280335,280)">
                        </g>
                        <text x="41px" y="280px" style="font-family:'Didot-Bold', 'Didot';font-weight:700;font-size:39.603px;fill:rgb(198,175,96);">M<tspan x="97.473px 147.333px 196.48px 246.339px 296.952px 345.346px 401.819px 450.214px 499.361px " y="280px 280px 280px 280px 280px 280px 280px 280px 280px ">ANAGEMENT</tspan></text>
                    </g>
                </g>
            </g>
        </g>
    </g>
</svg>
