<?xml version="1.0" encoding="UTF-8" standalone="no"?>
<!DOCTYPE svg PUBLIC "-//W3C//DTD SVG 1.1//EN" "http://www.w3.org/Graphics/SVG/1.1/DTD/svg11.dtd">
<svg width="100%" height="100%" viewBox="0 0 800 200" version="1.1" xmlns="http://www.w3.org/2000/svg" xmlns:xlink="http://www.w3.org/1999/xlink" xml:space="preserve" xmlns:serif="http://www.serif.com/" style="fill-rule:evenodd;clip-rule:evenodd;stroke-linejoin:round;stroke-miterlimit:2;">
    <g transform="matrix(1,0,0,1,-1279.305181,-450)">
        <g id="_4" serif:id="4" transform="matrix(1,0,0,0.5,829.305181,450)">
            <rect x="450" y="0" width="800" height="400" style="fill:none;"/>
            <g transform="matrix(1.209421,0,0,2.418843,-80.506371,-232.972848)">
                <g transform="matrix(-0.819025,0,0,0.819025,719.020123,81.536036)">
                    <path d="M205,26L166,103L183,122L205,78L227,122L244,103L205,26ZM205,162L142,81L83,212L128,212L117,201L117,194L147,128L205,200L263,128L293,194L293,201L282,212L327,212L268,81L205,162Z" style="fill:rgb(198,175,96);"/>
                </g>
                <g transform="matrix(1.044887,0,0,1.044887,-198.792987,-168.47022)">
                    <g transform="matrix(0.791322,0,0,0.791322,797.575729,97.387295)">
                        <g transform="matrix(112.24937,0,0,112.24937,551.397887,310.604325)">
                        </g>
                        <text x="41px" y="310.604px" style="font-family:'Didot-Bold', 'Didot';font-weight:700;font-size:112.249px;fill:rgb(198,175,96);">A<tspan x="131.81px 210.16px 296.816px 383.473px 472.262px " y="310.604px 310.604px 310.604px 310.604px 310.604px ">SCENT</tspan></text>
                    </g>
                    <g transform="matrix(0.791322,0,0,0.791322,793.577589,164.342874)">
                        <g transform="matrix(41.821647,0,0,41.821647,554.528001,281.599932)">
                        </g>
                        <text x="41px" y="281.6px" style="font-family:'Didot-Bold', 'Didot';font-weight:700;font-size:41.822px;fill:rgb(198,175,96);">M<tspan x="100.638px 153.291px 205.192px 257.845px 311.293px 362.399px 422.037px 473.143px 525.044px " y="281.6px 281.6px 281.6px 281.6px 281.6px 281.6px 281.6px 281.6px 281.6px ">ANAGEMENT</tspan></text>
                    </g>
                </g>
            </g>
        </g>
    </g>
</svg>
