<?xml version="1.0" encoding="UTF-8" standalone="no"?>
<!DOCTYPE svg PUBLIC "-//W3C//DTD SVG 1.1//EN" "http://www.w3.org/Graphics/SVG/1.1/DTD/svg11.dtd">
<svg width="100%" height="100%" viewBox="0 0 800 200" version="1.1" xmlns="http://www.w3.org/2000/svg" xmlns:xlink="http://www.w3.org/1999/xlink" xml:space="preserve" xmlns:serif="http://www.serif.com/" style="fill-rule:evenodd;clip-rule:evenodd;stroke-linejoin:round;stroke-miterlimit:2;">
    <g transform="matrix(1,0,0,1,-1279.305181,-450)">
        <g id="_4" serif:id="4" transform="matrix(1,0,0,0.5,829.305181,450)">
            <rect x="450" y="0" width="800" height="400" style="fill:none;"/>
            <g transform="matrix(1.209421,0,0,2.418843,-80.506371,-232.972848)">
                <g transform="matrix(-0.819025,0,0,0.819025,719.020123,81.536036)">
                    <path d="M205,26L166,103L183,122L205,78L227,122L244,103L205,26ZM205,162L142,81L83,212L128,212L117,201L117,194L147,128L205,200L263,128L293,194L293,201L282,212L327,212L268,81L205,162Z" style="fill:rgb(198,175,96);"/>
                </g>
                <g transform="matrix(1.044887,0,0,1.044887,-198.792987,-168.47022)">
                    <path d="M827.799,341.932L835.261,341.932L861.731,277.445L864.129,277.445L892.109,341.932L899.748,341.932L899.748,343.175L869.903,343.175L869.903,341.932L878.163,341.932L867.86,318.127L846.541,318.127L836.682,341.932L844.587,341.932L844.587,343.175L827.799,343.175L827.799,341.932ZM856.934,292.634L846.986,316.883L867.415,316.883L856.934,292.634ZM907.476,323.456L908.808,323.456C908.926,324.167 909.134,325.099 909.43,326.254C909.726,327.409 910.155,328.652 910.718,329.985C911.28,331.317 911.991,332.679 912.85,334.071C913.708,335.462 914.759,336.75 916.003,337.935C917.365,339.297 918.682,340.333 919.956,341.043C921.229,341.754 922.443,342.272 923.597,342.598C924.752,342.924 925.848,343.101 926.884,343.131C927.92,343.16 928.883,343.175 929.771,343.175C932.909,343.175 935.485,342.687 937.499,341.71C939.512,340.733 941.096,339.533 942.251,338.112C943.406,336.691 944.22,335.196 944.693,333.627C945.167,332.057 945.404,330.681 945.404,329.496C945.404,327.305 944.886,325.499 943.85,324.078C942.813,322.657 941.437,321.472 939.719,320.525C938.002,319.577 936.048,318.778 933.857,318.127C931.666,317.475 929.416,316.809 927.106,316.128C924.797,315.447 922.546,314.648 920.355,313.73C918.164,312.812 916.21,311.627 914.493,310.177C912.776,308.726 911.399,306.935 910.362,304.803C909.326,302.671 908.808,300.006 908.808,296.808C908.808,294.44 909.341,292.16 910.407,289.969C911.473,287.778 912.953,285.839 914.848,284.151C916.743,282.463 919.008,281.101 921.643,280.065C924.278,279.029 927.136,278.51 930.215,278.51C932.169,278.51 933.886,278.688 935.367,279.043C936.847,279.399 938.15,279.769 939.275,280.154C940.4,280.539 941.392,280.909 942.251,281.264C943.109,281.619 943.894,281.797 944.605,281.797C945.434,281.797 945.981,281.664 946.248,281.397C946.514,281.131 946.796,280.642 947.092,279.932L948.513,279.932L948.513,296.808L947.358,296.808C946.648,294.736 945.893,292.693 945.093,290.679C944.294,288.666 943.272,286.845 942.029,285.217C940.785,283.588 939.216,282.271 937.321,281.264C935.426,280.257 933.028,279.754 930.126,279.754C927.757,279.754 925.67,280.08 923.864,280.731C922.058,281.382 920.533,282.241 919.289,283.307C918.046,284.373 917.098,285.557 916.447,286.86C915.796,288.163 915.47,289.495 915.47,290.857C915.47,292.93 916.018,294.647 917.113,296.009C918.209,297.371 919.645,298.541 921.421,299.518C923.198,300.495 925.226,301.339 927.506,302.049C929.786,302.76 932.125,303.5 934.523,304.27C936.921,305.04 939.26,305.883 941.54,306.801C943.82,307.719 945.848,308.889 947.625,310.31C949.401,311.731 950.837,313.448 951.933,315.462C953.028,317.475 953.576,319.962 953.576,322.923C953.576,325.825 952.984,328.578 951.8,331.184C950.615,333.789 948.942,336.069 946.781,338.023C944.619,339.978 942.044,341.532 939.053,342.687C936.063,343.841 932.732,344.419 929.06,344.419C927.224,344.419 925.404,344.241 923.597,343.886C921.791,343.531 920.104,343.16 918.534,342.776C916.965,342.391 915.574,342.021 914.36,341.665C913.146,341.31 912.243,341.132 911.65,341.132C910.821,341.132 910.229,341.266 909.874,341.532C909.519,341.798 909.193,342.346 908.897,343.175L907.476,343.175L907.476,323.456ZM1022.238,298.052L1021.083,298.052C1020.432,296.098 1019.647,294.04 1018.729,291.879C1017.812,289.717 1016.627,287.733 1015.176,285.927C1013.726,284.121 1011.919,282.641 1009.758,281.486C1007.597,280.331 1004.917,279.754 1001.719,279.754C997.397,279.754 993.992,280.553 991.504,282.152C989.017,283.751 987.137,285.972 985.864,288.814C984.591,291.657 983.777,295.047 983.421,298.985C983.066,302.923 982.888,307.231 982.888,311.909C982.888,318.067 983.244,323.16 983.954,327.187C984.665,331.213 985.775,334.411 987.285,336.78C988.795,339.149 990.749,340.807 993.148,341.754C995.546,342.702 998.403,343.175 1001.719,343.175C1004.384,343.175 1006.797,342.642 1008.959,341.576C1011.12,340.511 1013.03,339.104 1014.688,337.357C1016.346,335.61 1017.738,333.612 1018.863,331.362C1019.988,329.111 1020.817,326.772 1021.35,324.344L1022.771,324.344L1022.771,343.175L1021.35,343.175C1021.054,342.465 1020.698,341.976 1020.284,341.71C1019.869,341.443 1019.248,341.31 1018.419,341.31C1017.708,341.31 1016.79,341.473 1015.665,341.798C1014.54,342.124 1013.252,342.479 1011.801,342.864C1010.35,343.249 1008.766,343.605 1007.049,343.93C1005.332,344.256 1003.526,344.419 1001.631,344.419C997.308,344.419 993.133,343.575 989.106,341.887C985.079,340.2 981.541,337.89 978.492,334.959C975.442,332.028 972.999,328.578 971.163,324.611C969.328,320.643 968.41,316.35 968.41,311.731C968.41,306.698 969.431,302.138 971.474,298.052C973.517,293.966 976.138,290.472 979.335,287.571C982.533,284.669 986.101,282.434 990.039,280.864C993.977,279.295 997.841,278.51 1001.631,278.51C1003.526,278.51 1005.287,278.688 1006.916,279.043C1008.544,279.399 1010.054,279.769 1011.446,280.154C1012.837,280.539 1014.096,280.909 1015.221,281.264C1016.346,281.619 1017.293,281.797 1018.063,281.797C1018.892,281.797 1019.514,281.693 1019.929,281.486C1020.343,281.279 1020.639,280.761 1020.817,279.932L1022.238,279.932L1022.238,298.052ZM1035.74,279.932L1088.857,279.932L1088.857,295.121L1087.702,295.121C1087.406,294.114 1086.903,292.826 1086.192,291.257C1085.482,289.688 1084.49,288.163 1083.217,286.682C1081.944,285.202 1080.3,283.914 1078.287,282.818C1076.273,281.723 1073.816,281.175 1070.914,281.175L1056.791,281.175L1056.791,308.622L1061.765,308.622C1063.956,308.622 1065.807,308.311 1067.317,307.69C1068.827,307.068 1070.085,306.18 1071.092,305.025C1072.099,303.87 1072.928,302.478 1073.579,300.85C1074.231,299.222 1074.763,297.401 1075.178,295.387L1076.333,295.387L1076.333,323.012L1075.178,323.012C1074.763,321.295 1074.275,319.637 1073.712,318.038C1073.15,316.439 1072.395,315.032 1071.447,313.818C1070.5,312.605 1069.33,311.642 1067.939,310.932C1066.547,310.221 1064.815,309.866 1062.742,309.866L1056.791,309.866L1056.791,341.932L1071.358,341.932C1074.082,341.932 1076.54,341.473 1078.731,340.555C1080.922,339.637 1082.861,338.349 1084.549,336.691C1086.237,335.033 1087.643,333.094 1088.768,330.873C1089.893,328.652 1090.752,326.269 1091.344,323.723L1092.499,323.723L1092.499,343.175L1035.74,343.175L1035.74,341.932L1043.911,341.932L1043.911,281.175L1035.74,281.175L1035.74,279.932ZM1104.046,279.932L1125.009,279.932L1154.588,322.212L1154.766,322.212L1154.766,281.175L1146.594,281.175L1146.594,279.932L1164.359,279.932L1164.359,281.175L1156.187,281.175L1156.187,343.175L1153.788,343.175L1113.817,286.238L1113.639,286.238L1113.639,341.932L1121.811,341.932L1121.811,343.175L1104.046,343.175L1104.046,341.932L1112.218,341.932L1112.218,281.175L1104.046,281.175L1104.046,279.932ZM1196.158,281.175L1192.96,281.175C1190.769,281.175 1188.815,281.397 1187.098,281.841C1185.381,282.285 1183.841,283.055 1182.479,284.151C1181.117,285.246 1179.903,286.771 1178.837,288.725C1177.771,290.679 1176.794,293.167 1175.906,296.187L1174.751,296.187L1174.751,279.932L1230.445,279.932L1230.445,296.187L1229.29,296.187C1228.402,293.167 1227.425,290.679 1226.359,288.725C1225.293,286.771 1224.079,285.246 1222.717,284.151C1221.355,283.055 1219.815,282.285 1218.098,281.841C1216.381,281.397 1214.427,281.175 1212.236,281.175L1209.038,281.175L1209.038,341.932L1217.21,341.932L1217.21,343.175L1187.986,343.175L1187.986,341.932L1196.158,341.932L1196.158,281.175ZM827.147,363.616L835.652,363.616L841.378,380.097L841.444,380.097L847.268,363.616L855.542,363.616L855.542,364.079L852.497,364.079L852.497,386.716L855.542,386.716L855.542,387.179L844.687,387.179L844.687,386.716L847.699,386.716L847.699,364.079L847.632,364.079L839.491,387.179L838.962,387.179L830.787,364.079L830.721,364.079L830.721,386.716L833.766,386.716L833.766,387.179L827.147,387.179L827.147,386.716L830.192,386.716L830.192,364.079L827.147,364.079L827.147,363.616ZM872.387,386.716L875.167,386.716L885.029,362.689L885.923,362.689L896.347,386.716L899.193,386.716L899.193,387.179L888.074,387.179L888.074,386.716L891.152,386.716L887.313,377.846L879.37,377.846L875.696,386.716L878.642,386.716L878.642,387.179L872.387,387.179L872.387,386.716ZM883.242,368.348L879.535,377.383L887.147,377.383L883.242,368.348ZM916.005,363.616L923.816,363.616L934.836,379.369L934.902,379.369L934.902,364.079L931.858,364.079L931.858,363.616L938.476,363.616L938.476,364.079L935.432,364.079L935.432,387.179L934.538,387.179L919.646,365.966L919.58,365.966L919.58,386.716L922.624,386.716L922.624,387.179L916.005,387.179L916.005,386.716L919.05,386.716L919.05,364.079L916.005,364.079L916.005,363.616ZM955.123,386.716L957.903,386.716L967.765,362.689L968.659,362.689L979.083,386.716L981.929,386.716L981.929,387.179L970.81,387.179L970.81,386.716L973.887,386.716L970.049,377.846L962.106,377.846L958.432,386.716L961.378,386.716L961.378,387.179L955.123,387.179L955.123,386.716ZM965.978,368.348L962.271,377.383L969.883,377.383L965.978,368.348ZM1019.26,370.367L1018.763,370.367C1018.19,368.205 1017.329,366.523 1016.182,365.32C1015.035,364.118 1013.501,363.528 1011.582,363.55C1010.06,363.55 1008.835,363.842 1007.909,364.427C1006.982,365.011 1006.27,365.773 1005.774,366.71C1005.278,367.648 1004.952,368.718 1004.798,369.92C1004.643,371.123 1004.566,372.342 1004.566,373.577L1004.566,376.456C1004.566,378.464 1004.698,380.152 1004.963,381.52C1005.228,382.888 1005.642,383.991 1006.204,384.829C1006.767,385.668 1007.495,386.269 1008.388,386.633C1009.282,386.997 1010.346,387.179 1011.582,387.179C1012.597,387.179 1013.402,386.997 1013.998,386.633C1014.594,386.269 1015.051,385.773 1015.371,385.144C1015.691,384.515 1015.895,383.77 1015.984,382.91C1016.072,382.049 1016.116,381.112 1016.116,380.097L1016.116,378.839L1012.707,378.839L1012.707,378.376L1022.933,378.376L1022.933,378.839L1020.782,378.839L1020.782,386.418L1020.187,386.418C1020.142,386.153 1020.016,385.96 1019.806,385.839C1019.596,385.717 1019.359,385.657 1019.094,385.657C1018.565,385.657 1018.063,385.762 1017.589,385.971L1016.05,386.65C1015.498,386.892 1014.864,387.118 1014.147,387.328C1013.43,387.538 1012.564,387.642 1011.549,387.642C1009.938,387.642 1008.383,387.328 1006.883,386.699C1005.382,386.07 1004.064,385.21 1002.928,384.118C1001.792,383.026 1000.881,381.741 1000.198,380.262C999.514,378.784 999.172,377.185 999.172,375.464C999.172,373.588 999.552,371.889 1000.313,370.367C1001.075,368.845 1002.051,367.543 1003.242,366.462C1004.434,365.381 1005.763,364.548 1007.23,363.963C1008.697,363.379 1010.137,363.086 1011.549,363.086C1012.211,363.086 1012.851,363.153 1013.468,363.285C1014.086,363.417 1014.66,363.555 1015.189,363.699C1015.719,363.842 1016.193,363.98 1016.612,364.112C1017.032,364.245 1017.385,364.311 1017.671,364.311C1017.98,364.311 1018.201,364.261 1018.333,364.162C1018.466,364.063 1018.587,363.881 1018.697,363.616L1019.26,363.616L1019.26,370.367ZM1041.135,363.616L1060.926,363.616L1060.926,369.275L1060.495,369.275C1060.385,368.9 1060.198,368.42 1059.933,367.835C1059.668,367.251 1059.299,366.683 1058.824,366.131C1058.35,365.579 1057.738,365.1 1056.987,364.691C1056.237,364.283 1055.322,364.079 1054.241,364.079L1048.979,364.079L1048.979,374.305L1050.832,374.305C1051.648,374.305 1052.338,374.19 1052.9,373.958C1053.463,373.726 1053.932,373.395 1054.307,372.965C1054.682,372.535 1054.991,372.016 1055.233,371.41C1055.476,370.803 1055.675,370.124 1055.829,369.374L1056.259,369.374L1056.259,379.667L1055.829,379.667C1055.675,379.027 1055.493,378.409 1055.283,377.813C1055.074,377.218 1054.792,376.694 1054.439,376.241C1054.086,375.789 1053.65,375.431 1053.132,375.166C1052.614,374.901 1051.968,374.769 1051.196,374.769L1048.979,374.769L1048.979,386.716L1054.406,386.716C1055.421,386.716 1056.337,386.545 1057.153,386.203C1057.969,385.861 1058.692,385.381 1059.321,384.763C1059.949,384.145 1060.473,383.423 1060.893,382.595C1061.312,381.768 1061.632,380.88 1061.852,379.931L1062.283,379.931L1062.283,387.179L1041.135,387.179L1041.135,386.716L1044.18,386.716L1044.18,364.079L1041.135,364.079L1041.135,363.616ZM1081.477,363.616L1089.983,363.616L1095.708,380.097L1095.774,380.097L1101.599,363.616L1109.872,363.616L1109.872,364.079L1106.828,364.079L1106.828,386.716L1109.872,386.716L1109.872,387.179L1099.017,387.179L1099.017,386.716L1102.029,386.716L1102.029,364.079L1101.963,364.079L1093.822,387.179L1093.292,387.179L1085.118,364.079L1085.052,364.079L1085.052,386.716L1088.096,386.716L1088.096,387.179L1081.477,387.179L1081.477,386.716L1084.522,386.716L1084.522,364.079L1081.477,364.079L1081.477,363.616ZM1128.769,363.616L1148.56,363.616L1148.56,369.275L1148.129,369.275C1148.019,368.9 1147.832,368.42 1147.567,367.835C1147.302,367.251 1146.933,366.683 1146.458,366.131C1145.984,365.579 1145.372,365.1 1144.621,364.691C1143.871,364.283 1142.956,364.079 1141.875,364.079L1136.613,364.079L1136.613,374.305L1138.466,374.305C1139.282,374.305 1139.972,374.19 1140.534,373.958C1141.097,373.726 1141.566,373.395 1141.941,372.965C1142.316,372.535 1142.625,372.016 1142.867,371.41C1143.11,370.803 1143.309,370.124 1143.463,369.374L1143.893,369.374L1143.893,379.667L1143.463,379.667C1143.309,379.027 1143.127,378.409 1142.917,377.813C1142.707,377.218 1142.426,376.694 1142.073,376.241C1141.72,375.789 1141.284,375.431 1140.766,375.166C1140.247,374.901 1139.602,374.769 1138.83,374.769L1136.613,374.769L1136.613,386.716L1142.04,386.716C1143.055,386.716 1143.971,386.545 1144.787,386.203C1145.603,385.861 1146.326,385.381 1146.955,384.763C1147.583,384.145 1148.107,383.423 1148.527,382.595C1148.946,381.768 1149.266,380.88 1149.486,379.931L1149.917,379.931L1149.917,387.179L1128.769,387.179L1128.769,386.716L1131.814,386.716L1131.814,364.079L1128.769,364.079L1128.769,363.616ZM1169.111,363.616L1176.922,363.616L1187.942,379.369L1188.008,379.369L1188.008,364.079L1184.963,364.079L1184.963,363.616L1191.582,363.616L1191.582,364.079L1188.538,364.079L1188.538,387.179L1187.644,387.179L1172.752,365.966L1172.685,365.966L1172.685,386.716L1175.73,386.716L1175.73,387.179L1169.111,387.179L1169.111,386.716L1172.156,386.716L1172.156,364.079L1169.111,364.079L1169.111,363.616ZM1218.323,364.079L1217.131,364.079C1216.315,364.079 1215.587,364.162 1214.947,364.327C1214.307,364.493 1213.734,364.78 1213.226,365.188C1212.719,365.596 1212.266,366.164 1211.869,366.892C1211.472,367.62 1211.108,368.547 1210.777,369.672L1210.347,369.672L1210.347,363.616L1231.097,363.616L1231.097,369.672L1230.667,369.672C1230.336,368.547 1229.972,367.62 1229.575,366.892C1229.178,366.164 1228.725,365.596 1228.218,365.188C1227.71,364.78 1227.137,364.493 1226.497,364.327C1225.857,364.162 1225.129,364.079 1224.313,364.079L1223.121,364.079L1223.121,386.716L1226.166,386.716L1226.166,387.179L1215.278,387.179L1215.278,386.716L1218.323,386.716L1218.323,364.079Z" style="fill:rgb(198,175,96);"/>
                </g>
            </g>
        </g>
    </g>
</svg>
